<svg width="182" height="182" viewBox="0 0 182 182" fill="none" xmlns="http://www.w3.org/2000/svg">
<path d="M23.1502 160.706C23.0161 160.639 22.8696 160.601 22.7199 160.593C22.5703 160.585 22.4206 160.608 22.2802 160.66C22.1428 160.708 22.0167 160.783 21.9102 160.882C21.8036 160.98 21.7189 161.1 21.6614 161.234C19.7055 165.205 17.5822 168.489 15.2914 171.085C13.0007 173.682 11.1066 174.937 9.60939 174.851C8.72365 174.821 8.02113 174.103 7.50183 172.698C6.95219 171.201 7.02863 169.047 7.73115 166.237C8.43367 163.427 9.67066 160.28 11.4421 156.797C12.9783 153.789 14.7511 150.908 16.7438 148.181C18.6524 145.584 20.3249 143.782 21.7615 142.774C22.5866 142.224 23.0907 142.042 23.2739 142.228C23.7593 142.624 23.8661 143.633 23.5943 145.252C23.2885 147.086 22.6163 148.995 21.5777 150.98C20.5391 152.965 19.714 154.08 19.1025 154.325C18.4958 154.568 18.2059 155.011 18.2325 155.654C18.2406 156.072 18.4041 156.472 18.6912 156.777C19.0144 157.141 19.4245 157.417 19.8833 157.579C21.2277 158.038 22.4495 157.61 23.5488 156.296C24.4648 155.197 25.3967 153.31 26.3443 150.636C27.2919 147.962 27.5952 145.632 27.2543 143.647C26.9789 142.059 26.2612 140.913 25.1012 140.211C23.7265 139.417 22.0922 139.318 20.1981 139.912C18.3041 140.507 16.2724 141.781 14.103 143.734C11.9982 145.642 10.122 147.787 8.51193 150.126C6.82096 152.525 5.39199 155.098 4.24949 157.801C1.59107 164.216 1.27014 169.639 3.28671 174.068C3.82517 175.23 4.66315 176.228 5.71459 176.959C6.79702 177.767 8.11291 178.201 9.46379 178.196H9.55479C14.4724 178.134 19.1923 172.804 23.7144 162.204C23.7747 162.071 23.8079 161.928 23.812 161.782C23.816 161.637 23.7909 161.492 23.738 161.356C23.6887 161.214 23.6112 161.083 23.5102 160.971C23.4092 160.859 23.2868 160.769 23.1502 160.706Z" fill="#0EACA1"/>
<path d="M53.7373 151.113C53.1235 150.665 52.3893 150.411 51.6297 150.385C50.7743 150.324 50.2089 150.416 49.9335 150.66C49.8348 150.721 49.7562 150.811 49.7074 150.916C49.6586 151.022 49.6417 151.14 49.6587 151.255C49.7085 151.93 49.6619 152.609 49.5204 153.271C49.0617 154.982 48.1068 156.96 46.6557 159.205C45.2045 161.449 44.0058 162.845 43.0594 163.391C42.8458 163.512 42.7081 163.557 42.6462 163.527C42.4315 163.465 42.355 163.269 42.4169 162.932C42.9362 161.253 43.868 159.129 45.2124 156.562C45.7621 155.523 46.0654 154.866 46.1224 154.591C46.6077 153.033 46.3651 151.872 45.3944 151.109C44.7807 150.661 44.0464 150.407 43.2869 150.381C42.4315 150.321 41.866 150.412 41.5906 150.656C41.4841 150.707 41.3985 150.793 41.3481 150.9C41.2977 151.007 41.2857 151.127 41.314 151.242C41.4645 152.149 41.4335 153.077 41.223 153.972C41.0793 154.695 40.8847 155.407 40.6406 156.103C39.0268 159.179 37.0673 161.684 34.762 163.618C33.9323 164.36 33.0007 164.979 31.9956 165.456C31.1547 165.82 30.582 165.942 30.2775 165.82C29.5131 165.546 29.0702 164.782 28.9489 163.529C28.8276 162.124 29.1024 160.566 29.7734 158.855C29.932 159.285 30.182 159.676 30.5063 160C30.8306 160.325 31.2213 160.575 31.6516 160.733C31.9165 160.829 32.1946 160.883 32.4761 160.893C32.8621 160.9 33.2473 160.855 33.6208 160.757C34.1771 160.596 34.6873 160.305 35.1096 159.909C35.7006 159.381 36.2032 158.763 36.5984 158.076C37.2977 157.015 37.7155 155.793 37.8123 154.525C37.8887 153.319 37.637 152.334 37.057 151.57C36.1094 150.286 34.5666 149.95 32.4287 150.561C29.8625 151.289 27.8769 152.985 26.4719 155.648C25.2759 157.847 24.7501 160.348 24.9595 162.843C25.0808 164.248 25.4399 165.37 26.0369 166.21C26.2958 166.603 26.6367 166.936 27.0364 167.185C27.436 167.434 27.8848 167.594 28.3519 167.653C28.641 167.683 28.9313 167.698 29.2219 167.698C30.6884 167.69 32.1267 167.294 33.3915 166.552C34.7948 165.738 36.0371 164.674 37.057 163.412C37.3688 163.035 37.6722 162.655 37.967 162.271C37.8807 162.517 37.809 162.768 37.7522 163.023C37.3882 164.887 37.6479 166.17 38.5312 166.872C38.9123 167.202 39.4011 167.382 39.9053 167.376C40.2645 167.378 40.6212 167.316 40.9591 167.194H41.0046C41.1414 167.172 41.2682 167.108 41.3686 167.012C41.3748 167.013 41.3811 167.013 41.387 167.011C41.393 167.009 41.3984 167.005 41.4028 167.001C41.4072 166.997 41.4105 166.991 41.4125 166.985C41.4145 166.979 41.415 166.973 41.4141 166.967C41.9637 166.846 42.659 166.318 43.4998 165.385C44.2235 164.598 44.8959 163.764 45.5127 162.89C46.0163 162.162 46.4973 161.429 46.956 160.69L47.5984 159.598C46.2541 163.202 44.7113 166.777 42.9702 170.321C41.2278 173.891 39.3642 175.66 37.3791 175.63C36.7639 175.629 36.1638 175.439 35.6611 175.084C35.1364 174.728 34.7171 174.238 34.4471 173.664C34.4346 173.618 34.4119 173.575 34.3808 173.538C34.3496 173.501 34.3107 173.472 34.2668 173.452C34.223 173.432 34.1753 173.423 34.1271 173.423C34.079 173.424 34.0316 173.436 33.9885 173.457C33.9426 173.467 33.8995 173.487 33.8621 173.515C33.8247 173.543 33.794 173.579 33.7721 173.621C33.7502 173.662 33.7377 173.708 33.7355 173.755C33.7332 173.802 33.7413 173.849 33.7592 173.892C33.9747 174.566 34.3252 175.19 34.7893 175.725C35.2729 176.282 35.8657 176.734 36.531 177.053C37.2146 177.389 37.9558 177.591 38.715 177.65C38.8812 177.681 39.05 177.697 39.2192 177.696C39.7693 177.691 40.3164 177.614 40.8462 177.466C42.494 176.983 43.9547 176.008 45.0322 174.671C45.854 173.695 46.5471 172.617 47.0943 171.464C47.6136 170.394 48.1408 169.279 48.6759 168.119C49.211 166.959 49.6769 165.905 50.0736 164.958L51.1511 162.391C51.4714 161.628 51.731 160.987 51.93 160.468C52.0258 160.185 52.1407 159.91 52.274 159.643C53.5262 156.863 54.2748 155.183 54.5199 154.602C55.129 153.131 54.8681 151.968 53.7373 151.113ZM33.8047 153.634C34.1687 153.42 34.4586 153.374 34.6746 153.497C34.9792 153.68 35.1169 154.123 35.0878 154.826C35.0162 155.619 34.7485 156.383 34.3088 157.048C33.8552 157.762 33.2022 158.328 32.4306 158.675C32.2052 158.765 31.9603 158.796 31.7196 158.764C31.4789 158.732 31.2505 158.639 31.0565 158.493C30.8721 158.382 30.7173 158.229 30.6054 158.045C30.4935 157.862 30.4278 157.654 30.414 157.439C31.3604 155.727 32.4906 154.459 33.8047 153.634Z" fill="#0EACA1"/>
<path d="M97.8433 154.154L97.4538 153.948L97.2718 154.312C95.5913 157.428 94.2015 159.75 93.1022 161.277C92.8595 161.614 92.6168 161.934 92.3742 162.24C92.2528 162.393 92.1461 162.531 92.0539 162.653C90.8927 163.998 89.9457 164.609 89.2128 164.486C89.0296 164.15 89.6866 162.391 91.1839 159.208C92.8947 155.634 93.7956 153.268 93.8866 152.11C93.9169 151.503 93.7186 151.061 93.2915 150.782C92.8947 150.506 92.3675 150.407 91.7099 150.483C91.0849 150.553 90.4686 150.686 89.8699 150.878C89.3964 151.02 88.9422 151.22 88.5176 151.473C87.479 152.054 86.3943 153.016 85.2634 154.36C85.6602 152.893 85.4005 151.808 84.4845 151.105C83.8633 150.654 83.1207 150.401 82.3533 150.377C81.4833 150.317 80.9258 150.408 80.6807 150.652C80.5724 150.706 80.4834 150.792 80.4261 150.899C80.3687 151.006 80.3458 151.127 80.3604 151.247C80.5104 152.155 80.4795 153.082 80.2694 153.977C80.2512 154.063 80.233 154.145 80.2148 154.227C80.202 154.243 80.1893 154.258 80.1765 154.276C78.3129 156.996 76.5105 158.478 74.7693 158.72C75.4718 156.245 75.5483 154.243 74.9986 152.714C74.5133 151.431 73.6427 150.667 72.3869 150.423C71.1954 150.026 69.9657 150.095 68.6978 150.629C67.4299 151.162 66.2493 152.119 65.1561 153.497L65.0414 153.643L64.9268 153.588L64.7448 153.952C64.7029 154.036 64.6556 154.125 64.6137 154.21C63.9475 155.14 63.3929 156.144 62.9612 157.202C62.3047 158.303 61.6623 159.297 61.0338 160.185C60.454 161.035 59.811 161.839 59.11 162.591C58.5604 163.157 58.2164 163.46 58.0781 163.501C57.9849 163.546 57.8786 163.554 57.7796 163.525C57.5964 163.464 57.52 163.282 57.5503 162.979C58.4967 159.68 60.4671 154.303 63.4617 146.848C64.1326 145.169 64.4966 144.222 64.5537 144.007C65.039 142.419 64.7793 141.243 63.7747 140.478C63.2554 140.051 62.5601 139.815 61.689 139.769C60.8178 139.723 60.2603 139.807 60.0164 140.022C59.741 140.175 59.6342 140.373 59.6961 140.617C59.8793 141.442 59.6809 142.931 59.1009 145.085C58.521 147.239 57.9477 149.109 57.381 150.696C56.8156 152.285 56.027 154.394 55.015 157.02C53.7313 160.381 53.0136 162.383 52.862 163.026C52.498 164.89 52.7576 166.173 53.6409 166.876C54.0372 167.212 54.5429 167.391 55.0624 167.38C55.4065 167.379 55.7478 167.317 56.0706 167.198H56.1161C56.2659 167.169 56.4072 167.107 56.5293 167.016C56.5284 167.01 56.5289 167.003 56.5309 166.997C56.5328 166.992 56.5361 166.986 56.5406 166.982C56.545 166.977 56.5504 166.974 56.5563 166.972C56.5623 166.97 56.5686 166.969 56.5748 166.97C57.0334 166.849 57.6522 166.36 58.4312 165.503C59.2101 164.647 60.2566 163.196 61.5707 161.15C61.7308 160.888 61.8965 160.617 62.0621 160.342C61.7138 162.509 62.0542 164.321 63.0831 165.778C64.1824 167.123 65.4042 167.795 66.7486 167.795C67.5747 167.777 68.3812 167.539 69.0855 167.107C70.0937 166.527 71.0486 165.625 71.9501 164.402C72.8723 163.142 73.634 161.772 74.2179 160.324C75.7539 160.343 77.2706 159.638 78.7679 158.207C78.6223 158.522 78.4639 158.859 78.291 159.224C77.4417 161.028 76.9375 162.295 76.7786 163.028C76.4146 164.892 76.6743 166.175 77.5576 166.878C77.9538 167.214 78.4595 167.393 78.979 167.382C79.3231 167.381 79.6644 167.319 79.9873 167.2H80.0328C80.1825 167.171 80.3238 167.109 80.4459 167.018C80.5887 166.883 80.6849 166.707 80.7207 166.514V166.423C80.7219 166.405 80.7266 166.388 80.7344 166.373C80.7422 166.357 80.753 166.343 80.7662 166.332C81.1023 164.498 81.7897 162.528 82.8283 160.42C83.8669 158.313 84.9589 156.572 86.1043 155.197C87.2497 153.822 88.1597 153.089 88.8343 152.996C88.8646 153.393 88.2689 154.921 87.047 157.579C86.683 158.374 86.4082 158.985 86.2226 159.412C86.0369 159.839 85.8003 160.404 85.5128 161.108C85.2216 161.812 85.0074 162.385 84.8703 162.826C84.7332 163.268 84.6034 163.742 84.4808 164.248C84.3665 164.681 84.3126 165.128 84.3207 165.576C84.3253 165.92 84.4113 166.257 84.5718 166.561C84.6681 166.765 84.8085 166.944 84.9829 167.087C85.1573 167.23 85.3614 167.332 85.5801 167.385C85.8508 167.446 86.1272 167.476 86.4046 167.476C88.2986 167.476 90.4219 166.04 92.7746 163.168C93.1713 162.683 93.5839 162.133 94.0122 161.518C95.561 159.385 96.9111 157.115 98.0453 154.736C98.1703 154.49 98.1029 154.296 97.8433 154.154ZM67.209 163.436C66.384 164.414 65.6814 164.796 65.1015 164.583C64.8588 164.49 64.7211 163.956 64.6883 162.979C64.6883 161.727 64.9783 160.238 65.5583 158.511C66.0954 156.86 66.9692 155.339 68.1245 154.043C68.3952 155.476 69.0259 156.816 69.9572 157.938C69.1637 160.353 68.2476 162.186 67.209 163.436ZM70.5087 156.105C69.714 154.792 69.3779 153.707 69.5004 152.851C69.8972 152.668 70.2005 152.607 70.4104 152.669C70.4794 152.691 70.5432 152.727 70.5982 152.774C70.6532 152.821 70.6982 152.879 70.7307 152.944C70.9795 153.343 70.9055 154.398 70.5087 156.109V156.105Z" fill="#0EACA1"/>
<path d="M144.424 141.902C144.667 141.443 144.682 141.046 144.47 140.71C144.376 140.558 144.249 140.43 144.098 140.335C143.947 140.241 143.777 140.182 143.6 140.164H143.141C142.49 140.221 141.855 140.391 141.263 140.668C136.288 142.409 132.057 147.267 128.568 155.241C126.823 159.255 125.472 163.43 124.535 167.706C124.352 166.27 124.444 164.506 124.81 162.413C125.103 160.642 125.501 158.89 126.002 157.166C126.429 155.761 127.055 153.852 127.88 151.439C128.244 150.4 128.512 149.628 128.683 149.124C128.854 148.619 129.068 147.962 129.326 147.154C129.536 146.523 129.712 145.881 129.851 145.231C129.944 144.757 130.043 144.23 130.15 143.649C130.248 143.158 130.301 142.66 130.31 142.16C130.315 141.778 130.254 141.398 130.128 141.037C129.915 140.188 129.151 139.897 127.837 140.165C127.287 140.074 126.592 140.204 125.753 140.555C124.913 140.906 123.653 141.54 121.973 142.457C120.751 143.099 119.789 143.595 119.086 143.946C118.243 144.354 117.378 144.719 116.496 145.038C115.67 145.375 114.796 145.583 113.906 145.656C113.574 145.653 113.243 145.607 112.922 145.52C112.56 145.424 112.213 145.278 111.892 145.085C111.566 144.896 111.271 144.656 111.02 144.375C110.771 143.029 110.865 141.642 111.295 140.342C111.361 140.18 111.362 139.999 111.299 139.835C111.236 139.672 111.113 139.539 110.956 139.463C110.798 139.387 110.617 139.374 110.45 139.427C110.283 139.48 110.143 139.594 110.057 139.747C108.926 141.671 108.773 143.336 109.599 144.741L109.69 144.923C110.148 146.879 111.019 148.208 112.301 148.911C112.936 149.248 113.644 149.424 114.363 149.422C115.279 149.422 116.326 149.131 117.503 148.55C118.512 148.068 119.477 147.501 120.389 146.854C121.138 146.304 122.153 145.51 123.436 144.472C123.538 144.408 123.63 144.331 123.711 144.242C122.172 146.323 120.801 148.521 119.609 150.818C118.218 153.429 116.933 156.063 115.752 158.72C114.571 161.378 113.968 162.722 113.941 162.754C113.727 163.182 113.323 164.06 112.727 165.389C112.131 166.717 111.589 167.863 111.1 168.825C110.615 169.787 110.027 170.819 109.336 171.919C108.748 172.909 108 173.794 107.122 174.538C106.327 175.18 105.517 175.544 104.694 175.63C104.249 175.675 103.805 175.544 103.456 175.266C102.601 174.562 102.043 173.569 101.783 172.287C101.523 170.979 101.515 169.633 101.76 168.323C102.01 166.944 102.458 165.609 103.088 164.359C103.72 163.017 104.617 161.817 105.724 160.83C106.778 159.914 107.87 159.593 109 159.867C109.123 159.897 109.252 159.881 109.364 159.821C109.525 159.775 109.662 159.668 109.748 159.523C109.833 159.378 109.86 159.206 109.822 159.043C109.792 158.737 109.549 158.477 109.094 158.264C108.639 158.05 107.768 157.833 106.481 157.612C104.648 157.306 103.02 157.528 101.6 158.276C100.179 159.025 99.0722 160.227 98.2799 161.882C97.6234 163.322 97.272 164.882 97.248 166.464C97.2144 168.214 97.5338 169.952 98.1871 171.575C98.8269 173.255 99.8835 174.745 101.257 175.905C102.968 177.372 104.511 178.105 105.886 178.105C107.291 178.105 108.757 177.54 110.285 176.409C111.354 175.645 112.56 174.01 113.905 171.506C115.274 168.944 116.506 166.311 117.594 163.618C118.709 160.869 119.992 157.821 121.443 154.476C122.894 151.131 124.139 148.542 125.178 146.708C125.025 147.072 124.811 147.622 124.535 148.357C124.077 149.488 123.733 150.374 123.505 151.015C123.277 151.655 122.941 152.572 122.497 153.765C122.054 154.956 121.726 155.941 121.512 156.72C121.299 157.499 121.039 158.439 120.733 159.539C120.459 160.484 120.26 161.45 120.138 162.426C120.047 163.251 119.979 164.114 119.932 165.014C119.882 165.85 119.936 166.689 120.093 167.511C120.233 168.241 120.463 168.951 120.779 169.624C121.604 171.335 122.994 172.496 124.948 173.107H125.178C125.286 173.105 125.393 173.09 125.498 173.062C125.581 173.013 125.652 172.946 125.707 172.867C125.763 172.788 125.801 172.698 125.818 172.603C125.909 172.298 126.062 171.687 126.277 170.771C127.988 163.897 129.775 158.413 131.639 154.32C133.35 150.558 135.244 147.595 137.321 145.429C134.724 151.02 133.181 154.411 132.693 155.603C130.889 159.849 129.629 163.393 128.912 166.233C128.195 169.074 128.172 171.655 128.843 173.977C129.24 175.262 129.79 176.238 130.494 176.904C131.198 177.57 131.778 177.906 132.236 177.912H132.374L133.015 177.776L132.924 177.133C131.852 168.86 135.686 157.116 144.424 141.902Z" fill="#FF903F"/>
<path d="M180.098 154.138C179.838 154.016 179.647 154.093 179.525 154.367C177.752 158.25 175.507 161.335 172.791 163.623C171.959 164.364 171.025 164.981 170.019 165.456C169.178 165.82 168.605 165.941 168.301 165.82C167.536 165.546 167.093 164.782 166.972 163.529C166.851 162.124 167.126 160.566 167.797 158.855C167.955 159.285 168.205 159.676 168.529 160C168.854 160.325 169.244 160.575 169.675 160.733C169.94 160.829 170.218 160.883 170.499 160.893C170.886 160.901 171.272 160.855 171.646 160.757C172.202 160.596 172.712 160.305 173.135 159.909C173.726 159.381 174.228 158.763 174.623 158.076C175.323 157.015 175.74 155.793 175.837 154.525C175.914 153.319 175.661 152.334 175.08 151.57C174.133 150.286 172.59 149.95 170.452 150.561C167.886 151.289 165.9 152.985 164.495 155.648C164.13 156.34 163.822 157.061 163.576 157.803C163.049 158.652 162.531 159.446 162.022 160.184C161.442 161.033 160.799 161.837 160.098 162.59C159.548 163.155 159.205 163.458 159.068 163.5C158.975 163.544 158.868 163.552 158.769 163.523C158.586 163.463 158.51 163.281 158.54 162.977C159.486 159.678 161.457 154.301 164.451 146.847C164.482 146.756 164.528 146.626 164.59 146.457C164.652 146.288 164.697 146.159 164.726 146.068C165.734 146.251 166.987 146.511 168.484 146.847C169.091 147 169.489 147.091 169.677 147.121C171.095 147.407 172.537 147.56 173.985 147.58C176.459 147.58 178.078 146.984 178.842 145.793C179.112 145.409 179.264 144.955 179.277 144.486C179.313 144.088 179.207 143.691 178.979 143.363C178.764 143.059 178.504 142.937 178.2 142.999C178.088 143.023 177.99 143.088 177.925 143.181C176.855 144.831 172.746 145.013 165.598 143.727C165.995 142.26 165.72 141.176 164.774 140.473C164.254 140.046 163.559 139.809 162.688 139.763C161.817 139.717 161.259 139.801 161.015 140.016C160.907 140.07 160.818 140.156 160.761 140.263C160.703 140.369 160.68 140.491 160.695 140.611C160.787 141.097 160.772 141.799 160.649 142.719C160.344 142.658 160.069 142.612 159.825 142.581C156.923 142.061 154.952 142.565 153.914 144.093C153.646 144.473 153.466 144.909 153.388 145.367C153.311 145.826 153.349 146.162 153.502 146.375C153.566 146.475 153.655 146.556 153.759 146.612C153.863 146.668 153.979 146.697 154.097 146.696C154.209 146.673 154.308 146.608 154.372 146.514C155.197 145.598 157.078 145.246 160.014 145.46C159.739 146.56 159.334 147.874 158.8 149.4C158.266 150.926 157.824 152.171 157.472 153.135C157.262 153.706 157.008 154.394 156.709 155.195C156.298 155.931 155.781 156.825 155.158 157.876C154.652 158.729 154.101 159.555 153.51 160.351C153.146 160.901 152.794 161.382 152.456 161.794C152.194 162.125 151.91 162.439 151.608 162.733C151.411 162.92 151.204 163.096 150.989 163.261C150.864 163.364 150.725 163.449 150.576 163.512C150.485 163.543 150.423 163.543 150.394 163.512C150.179 163.451 150.102 163.254 150.164 162.917C150.684 161.238 151.616 159.115 152.96 156.547C153.296 155.906 153.6 155.248 153.87 154.576C154.355 153.018 154.113 151.858 153.142 151.095C152.528 150.646 151.794 150.393 151.034 150.367C150.179 150.306 149.614 150.397 149.338 150.641C149.23 150.695 149.141 150.782 149.083 150.888C149.026 150.995 149.003 151.116 149.018 151.236C149.231 152.275 149.155 153.467 148.788 154.811C148.758 153.161 148.377 152.031 147.644 151.42C146.916 150.778 145.877 150.702 144.528 151.191C143.274 151.65 142.068 152.597 140.908 154.032C139.709 155.541 138.814 157.269 138.272 159.119C137.677 161.075 137.547 162.923 137.883 164.664C138.097 165.856 138.677 166.635 139.625 167.001C139.961 167.129 140.319 167.19 140.679 167.183C141.373 167.186 142.049 166.96 142.602 166.541C143.387 165.971 144.315 164.936 145.385 163.436C145.142 165.086 145.432 166.231 146.255 166.872C146.63 167.212 147.123 167.393 147.629 167.376C147.988 167.373 148.344 167.311 148.683 167.194C148.833 167.166 148.974 167.103 149.096 167.012C150.165 166.708 151.83 164.814 154.09 161.33C154.341 160.935 154.594 160.522 154.851 160.098C154.29 161.618 153.96 162.594 153.861 163.026C153.497 164.89 153.756 166.173 154.64 166.876C155.036 167.212 155.542 167.391 156.061 167.38C156.405 167.379 156.747 167.317 157.069 167.198H157.115C157.265 167.169 157.406 167.107 157.528 167.016L157.574 166.97C158.032 166.849 158.651 166.36 159.43 165.503C160.209 164.647 161.255 163.196 162.569 161.15L163.004 160.435C162.919 161.236 162.911 162.044 162.981 162.846C163.102 164.251 163.461 165.374 164.058 166.213C164.317 166.607 164.658 166.939 165.058 167.189C165.457 167.438 165.906 167.597 166.373 167.657C166.662 167.686 166.953 167.701 167.243 167.702C168.71 167.693 170.148 167.298 171.413 166.555C172.818 165.743 174.062 164.679 175.084 163.418C176.154 162.131 177.12 160.759 177.97 159.317C178.835 157.835 179.615 156.305 180.307 154.735C180.34 154.683 180.361 154.625 180.368 154.564C180.376 154.504 180.369 154.442 180.349 154.385C180.329 154.327 180.295 154.275 180.252 154.232C180.208 154.189 180.156 154.157 180.098 154.138ZM171.826 153.633C172.19 153.42 172.48 153.374 172.696 153.497C173.002 153.68 173.139 154.123 173.109 154.826C173.037 155.619 172.77 156.383 172.33 157.048C171.877 157.762 171.224 158.328 170.452 158.675C170.226 158.765 169.981 158.796 169.74 158.764C169.499 158.733 169.27 158.639 169.076 158.493C168.892 158.382 168.738 158.228 168.626 158.045C168.514 157.861 168.449 157.653 168.435 157.439C169.382 155.727 170.512 154.458 171.826 153.633ZM147.54 157.43C146.96 159.146 146.118 160.761 145.043 162.218C144.019 163.579 143.08 164.549 142.226 165.13C142.104 165.223 142.013 165.253 141.951 165.221C141.615 165.068 141.433 164.519 141.405 163.572C141.374 162.289 141.756 160.685 142.549 158.76C143.343 156.836 144.26 155.4 145.3 154.452C145.879 153.903 146.414 153.628 146.903 153.628H147.041C147.171 153.665 147.285 153.746 147.362 153.857C147.789 154.378 147.91 155.371 147.726 156.837C147.723 156.95 147.754 157.062 147.817 157.157C147.747 157.166 147.683 157.198 147.633 157.247C147.583 157.297 147.55 157.361 147.54 157.43Z" fill="#FF903F"/>
<path d="M128.164 115.952C127.371 117.422 126.334 118.747 125.1 119.873C124.979 119.984 124.895 120.129 124.859 120.289C124.615 121.441 124.101 122.518 123.36 123.432C117.237 130.86 96.8368 124.15 77.7814 108.454C65.8659 98.644 59.0536 88.27 57.2009 85.1888C57.1368 85.0824 57.0981 84.9627 57.0876 84.8389C57.0771 84.7152 57.0951 84.5907 57.1403 84.475C57.1855 84.3593 57.2566 84.2556 57.3482 84.1717C57.4398 84.0878 57.5494 84.0261 57.6686 83.9912L60.7262 83.0812C60.8402 83.0473 60.9453 82.9888 61.0342 82.9099C61.1232 82.831 61.1937 82.7335 61.2409 82.6244C61.2881 82.5152 61.3108 82.3971 61.3074 82.2782C61.304 82.1594 61.2746 82.0427 61.2212 81.9364L61.2012 81.8964C61.1386 81.7716 61.0449 81.6651 60.9292 81.587C60.8135 81.5089 60.6797 81.4619 60.5406 81.4505L55.9742 81.0865C55.8236 81.075 55.6793 81.0215 55.5577 80.9321C55.4361 80.8426 55.342 80.7208 55.2862 80.5805C54.6947 79.0954 54.0395 77.5229 53.3843 76.0032C53.3384 75.8971 53.3157 75.7824 53.3177 75.6668C53.3196 75.5511 53.3462 75.4373 53.3956 75.3327C53.445 75.2282 53.5162 75.1354 53.6043 75.0605C53.6924 74.9856 53.7955 74.9304 53.9067 74.8985L60.9828 72.8692C61.0977 72.8362 61.2038 72.7782 61.2938 72.6995C61.3837 72.6208 61.4552 72.5233 61.5031 72.4138C61.5511 72.3043 61.5743 72.1857 61.5712 72.0662C61.5681 71.9467 61.5387 71.8294 61.4851 71.7226L60.7353 70.2284C60.6763 70.1109 60.5896 70.0094 60.4828 69.9327C60.376 69.856 60.2522 69.8063 60.122 69.7879L50.2321 68.3829C50.106 68.3642 49.986 68.3163 49.8817 68.243C49.7774 68.1697 49.6917 68.073 49.6315 67.9607C47.4184 63.862 45.0687 61.0447 44.1715 61.4887C43.2742 61.9328 44.1624 65.6183 46.1899 69.9244C46.2462 70.0443 46.2725 70.1761 46.2663 70.3085L45.8295 79.2574C45.8228 79.3972 45.8522 79.5364 45.915 79.6614L46.461 80.7534C46.5295 80.8883 46.6343 81.0013 46.7635 81.0799C46.8927 81.1585 47.0412 81.1996 47.1924 81.1984C47.3436 81.1973 47.4915 81.154 47.6195 81.0735C47.7475 80.993 47.8506 80.8784 47.917 80.7425L49.1747 78.1399C49.2391 78.0096 49.3373 77.8989 49.4591 77.8195C49.5809 77.7401 49.7218 77.6949 49.8671 77.6886C50.0123 77.6823 50.1566 77.7151 50.2849 77.7836C50.4131 77.8521 50.5206 77.9538 50.5961 78.078C51.3568 79.3866 52.1449 80.7061 52.9038 81.9383C52.9622 82.0331 53.0003 82.1389 53.0157 82.2492C53.031 82.3595 53.0233 82.4718 52.993 82.5789L52.0521 86.0005C51.998 86.1949 52.0181 86.4025 52.1085 86.5829C52.1671 86.6997 52.253 86.8006 52.3588 86.8772C52.4647 86.9538 52.5874 87.0038 52.7167 87.0229C52.846 87.042 52.9779 87.0297 53.1014 86.987C53.2249 86.9443 53.3363 86.8725 53.4262 86.7776L54.196 85.9641C54.284 85.8709 54.3929 85.7999 54.5136 85.7568C54.6344 85.7138 54.7636 85.6999 54.8908 85.7165C55.0179 85.733 55.1393 85.7794 55.245 85.8518C55.3508 85.9243 55.4379 86.0208 55.4992 86.1334C57.665 90.1264 66.4865 105.413 81.0865 117.51C101.998 134.84 124.488 142.162 131.233 133.99C134.383 130.168 133.537 123.616 129.595 115.972C129.527 115.842 129.426 115.732 129.301 115.655C129.176 115.578 129.033 115.536 128.886 115.534C128.739 115.532 128.594 115.57 128.467 115.644C128.34 115.717 128.236 115.824 128.164 115.952Z" fill="#FF903F"/>
<path d="M57.1662 33.0639C59.3502 34.9968 60.8062 36.1124 60.8062 39.2829C60.8062 42.5589 60.0437 45.8585 59.5322 49.0872C59.2647 50.7634 58.9553 52.4524 58.7842 54.1414C58.5658 56.289 59.0863 58.2364 59.201 60.3676C59.2356 61.0082 60.1474 60.9955 60.384 60.5022C61.3468 58.5002 62.6099 56.8295 63.2742 54.6782C63.8966 52.6653 64.348 50.5796 64.8448 48.5339C65.6074 45.389 66.612 42.224 66.612 38.948C66.612 36.0487 65.7839 33.2059 63.6782 31.122C61.7071 29.1764 59.0026 28.665 57.0934 26.6211C56.5474 26.0406 55.1206 26.117 54.7475 26.8832C53.5244 29.3821 55.2935 31.4132 57.1662 33.0639Z" fill="#0EACA1"/>
<path d="M65.6726 14.6492C65.8546 14.1178 65.4142 13.6883 64.9446 13.5572C64.2003 13.3388 63.7726 13.4007 63.0264 13.4407C61.6759 13.5135 61.3356 13.7338 62.1946 12.4361C62.9312 11.3414 63.911 10.432 65.0575 9.7789C67.6401 8.27922 70.654 8.28286 73.3348 9.52228C74.7908 10.1957 76.0976 11.1384 77.3643 12.1394C76.7233 12.2288 76.0932 12.3844 75.4843 12.6035C74.1409 12.9521 72.8813 13.5673 71.7806 14.4126C69.7658 15.976 68.0568 18.5549 67.7183 21.1139C67.5236 22.5808 67.7274 23.6782 67.924 25.0997C68.0168 25.7803 67.8184 26.532 67.9804 27.1908C68.1624 27.9188 68.7084 28.5322 68.9778 29.2329C69.0113 29.3008 69.0631 29.358 69.1274 29.398C69.1918 29.438 69.266 29.4592 69.3418 29.4592C69.4175 29.4592 69.4917 29.438 69.5561 29.398C69.6204 29.358 69.6723 29.3008 69.7058 29.2329C70.0443 28.443 70.6158 27.8424 70.8542 27.0252C71.1781 25.9441 71.3492 25.0232 71.8388 23.9822C72.6851 22.1968 73.1237 20.1729 74.4833 18.6714C75.082 18.0243 75.81 17.5102 76.6202 17.1625C77.4304 16.8148 78.3046 16.6412 79.1861 16.653C80.2399 16.6658 81.2464 16.9734 82.2583 17.2354C85.1121 18.433 87.1723 20.9009 88.8685 23.458C90.0661 25.2598 91.1818 27.118 92.2738 29.0236C92.3083 29.1146 92.3466 29.2056 92.383 29.2948C93.8917 33.2642 95.0493 37.3719 96.3305 41.4178C96.498 41.9474 96.6709 42.4861 96.8474 43.0267L96.9384 43.3069C97.1168 43.8542 97.2988 44.4044 97.4844 44.9577L97.5499 45.1397C97.9503 46.3045 98.3744 47.4766 98.8239 48.6432L98.8731 48.7688C99.106 49.3621 99.3487 49.9524 99.6011 50.5396L99.6156 50.5706C100.127 51.7608 100.68 52.9366 101.279 54.0777L101.328 54.1723C102.14 55.726 103.067 57.216 104.104 58.6295C104.999 60.5769 105.947 62.5007 106.908 64.4171C107.431 64.4572 107.973 64.5136 108.546 64.5991C109.238 64.6919 109.975 64.8121 110.871 64.974C111.546 65.0978 112.343 65.2489 113.169 65.4236C113.603 65.5161 113.997 65.7408 114.297 66.0668C114.597 66.3928 114.789 66.804 114.845 67.2436L114.873 67.4456C114.929 67.885 114.848 68.3311 114.64 68.7223C114.432 69.1135 114.107 69.4305 113.712 69.6296C112.894 70.0293 112.041 70.3529 111.164 70.596C110.814 70.6979 110.472 70.7889 110.141 70.8708C111.635 73.8775 113.162 77.0588 114.509 80.3712C114.627 80.404 114.751 80.4404 114.873 80.4823C115.39 80.6568 115.821 81.0228 116.078 81.5051L115.098 81.8691C115.42 82.7002 115.727 83.538 116.019 84.3825C116.087 84.5779 116.154 84.7738 116.219 84.9704C116.307 85.2312 116.393 85.4927 116.478 85.7548C116.542 85.9514 116.604 86.1461 116.66 86.3427C116.744 86.6084 116.824 86.8759 116.902 87.1435C116.958 87.3346 117.017 87.5257 117.071 87.7186C117.153 88.0025 117.23 88.2864 117.304 88.5703C117.352 88.7523 117.401 88.9234 117.446 89.1C117.534 89.4367 117.614 89.7734 117.694 90.1101C117.723 90.2356 117.756 90.3594 117.785 90.485C117.89 90.9461 117.989 91.4077 118.08 91.87C118.101 91.9847 118.121 92.0993 118.141 92.214C118.207 92.5634 118.271 92.911 118.323 93.2605C118.351 93.4316 118.374 93.6045 118.4 93.7755C118.444 94.0686 118.487 94.3616 118.525 94.6546C118.549 94.8366 118.569 95.0332 118.591 95.2224C118.622 95.4991 118.653 95.7684 118.676 96.0524C118.695 96.2489 118.709 96.4455 118.724 96.642C118.744 96.9132 118.762 97.188 118.775 97.4538C118.784 97.654 118.793 97.8536 118.8 98.0525C118.809 98.3207 118.814 98.5894 118.817 98.8588C118.817 99.0572 118.817 99.2574 118.817 99.4558C118.817 99.7269 118.806 100.002 118.797 100.269C118.797 100.464 118.784 100.659 118.773 100.854C118.758 101.134 118.735 101.414 118.711 101.696C118.697 101.878 118.684 102.06 118.664 102.242C118.633 102.552 118.591 102.859 118.549 103.167C118.529 103.321 118.513 103.474 118.489 103.629C118.42 104.089 118.34 104.55 118.245 105.01C118.181 105.325 118.109 105.64 118.034 105.955C118.01 106.05 117.987 106.137 117.963 106.239C117.906 106.466 117.845 106.693 117.781 106.92C117.753 107.02 117.725 107.122 117.696 107.224C117.624 107.466 117.549 107.709 117.472 107.952C117.45 108.021 117.428 108.092 117.406 108.161C117.301 108.482 117.19 108.803 117.073 109.124L117.04 109.209C116.934 109.498 116.822 109.786 116.705 110.074L116.616 110.287C116.509 110.545 116.398 110.802 116.283 111.056L116.203 111.238C115.908 111.881 115.59 112.512 115.246 113.133V113.148C115.078 113.45 114.904 113.748 114.723 114.043L114.669 114.132C113.92 115.359 113.062 116.517 112.106 117.59C111.389 118.393 110.61 119.137 109.775 119.816C109.043 120.411 108.264 120.947 107.447 121.418C107.601 120.127 107.729 118.833 107.829 117.537C107.838 117.427 107.846 117.317 107.853 117.206C108.022 114.82 108.095 112.427 108.051 110.03C108.051 109.843 108.047 109.656 108.039 109.469C107.982 107.26 107.826 105.052 107.549 102.854C107.255 100.461 106.804 98.0895 106.199 95.7557C105.893 94.5885 105.542 93.4358 105.147 92.2977L105.014 91.8736L104.859 91.4514L104.697 91.0237L104.533 90.6015L104.364 90.181L104.278 89.9717L104.242 89.8844L104.22 89.8352L104.175 89.7351L103.811 88.9289C102.85 86.7347 101.731 84.613 100.464 82.5807C99.8029 81.5511 99.0732 80.5673 98.2798 79.636C97.9158 79.2028 97.5287 78.783 97.1186 78.3765C97.4086 78.3316 97.6925 78.2977 97.9704 78.2746C98.7109 78.2109 99.4559 78.2213 100.194 78.3055L100.455 78.3401C100.54 78.351 100.626 78.3674 100.711 78.3802C100.797 78.3929 100.881 78.4093 100.964 78.4275L101.09 78.453L101.172 78.4675L101.223 78.4803C101.546 78.5533 101.866 78.6432 102.18 78.7496C102.502 78.8593 102.819 78.9856 103.128 79.1282L103.367 79.2447L103.398 79.2592H103.412L103.461 79.2847H103.47H103.479L103.554 79.3211L103.656 79.3702C103.731 79.4066 103.805 79.4467 103.882 79.4885L104.109 79.6141C104.779 80.0221 105.422 80.4732 106.033 80.9646C106.757 81.5501 107.51 82.0981 108.29 82.6062C108.499 82.7354 108.714 82.8628 108.936 82.9793C109.046 83.0387 109.159 83.0964 109.273 83.1522L109.358 83.1941L109.38 83.2032H109.398L109.436 83.2214L109.553 83.2796L109.662 83.3287C109.953 83.4527 110.259 83.5383 110.572 83.5835C110.719 83.6058 110.867 83.6185 111.016 83.6218C111.158 83.6263 111.299 83.6226 111.44 83.6108C111.947 83.5618 112.445 83.4429 112.92 83.2578C113.144 83.174 113.36 83.0849 113.573 82.9902C113.681 82.9429 113.786 82.8974 113.894 82.8483L114.216 82.7045L114.207 82.5006C113.979 82.4278 113.747 82.3671 113.513 82.3186C113.282 82.264 113.055 82.2222 112.832 82.1749C112.425 82.1005 112.026 81.9878 111.64 81.8382C111.485 81.7735 111.336 81.6923 111.198 81.5961C111.081 81.5137 110.975 81.4172 110.881 81.3085L110.849 81.2703V81.2558L110.82 81.2248L110.803 81.2084L110.79 81.1939L110.739 81.1393L110.536 80.9172C110.401 80.7662 110.268 80.6133 110.135 80.4568C109.604 79.8289 109.074 79.1482 108.457 78.4548C108.303 78.2801 108.142 78.1053 107.975 77.9306C107.809 77.7486 107.633 77.583 107.451 77.4101C107.269 77.2372 107.076 77.0679 106.874 76.9023C106.774 76.8204 106.67 76.7367 106.564 76.6566C106.459 76.5765 106.35 76.4983 106.239 76.42C106.128 76.3418 106.015 76.2671 105.898 76.1925C105.782 76.1179 105.663 76.0487 105.534 75.9796L105.341 75.8722L105.269 75.8322L105.303 75.8504L105.281 75.8376L105.238 75.8121C105.121 75.7466 105.001 75.6847 104.874 75.6301C104.382 75.3771 103.867 75.1735 103.336 75.0223C102.794 74.869 102.238 74.7762 101.676 74.7456H101.561H101.476C101.408 74.7456 101.337 74.7456 101.268 74.7456C101.129 74.7456 100.99 74.7486 100.853 74.7547C100.715 74.7547 100.577 74.7729 100.44 74.7857C100.304 74.7984 100.167 74.8166 100.031 74.8384C98.9605 75.0036 97.9422 75.4107 97.0531 76.0287C96.9675 76.0888 96.8856 76.1488 96.8037 76.2107L96.8802 76.0924C97.0015 75.9068 97.1228 75.7248 97.2442 75.5464L97.3352 75.4117L97.3588 75.379L97.3679 75.3644L97.3807 75.3462L97.4298 75.2734L97.6118 75.0186C97.8545 74.674 98.1056 74.3422 98.3653 74.0231L98.2288 74.1905L98.4235 73.9121C98.7563 73.4311 99.1309 72.9804 99.5428 72.5653C99.9357 72.1713 100.366 71.8165 100.828 71.506L100.871 71.4769L100.891 71.4642L100.986 71.4059L101.168 71.2931C101.295 71.2179 101.426 71.1457 101.559 71.0765C101.692 71.0092 101.827 70.9382 101.965 70.8745C102.104 70.8108 102.244 70.7489 102.384 70.6925C102.977 70.4465 103.585 70.238 104.204 70.0682C105.478 69.7042 106.896 69.4476 108.353 69.1327C109.081 68.9726 109.824 68.7997 110.565 68.5867C111.316 68.3774 112.047 68.1009 112.749 67.7605L112.721 67.5584C111.959 67.3965 111.222 67.2563 110.483 67.1216C109.744 66.987 109.009 66.8632 108.259 66.7576C107.509 66.6521 106.748 66.5756 105.969 66.5502C105.171 66.5138 104.371 66.5357 103.576 66.6157C102.737 66.6989 101.909 66.8665 101.104 67.1162C100.899 67.1799 100.693 67.2527 100.489 67.3291C100.285 67.4056 100.082 67.4893 99.8814 67.5803C99.6812 67.6713 99.4828 67.7623 99.2862 67.8715C99.1879 67.9224 99.0933 67.9752 98.9932 68.0335L98.8494 68.1172L98.8203 68.1354L98.7602 68.1718L98.6874 68.2173C97.5086 68.9417 96.5344 69.9553 95.8573 71.162V71.1093V71.0674L95.8391 70.8654C95.81 70.5906 95.7718 70.3194 95.719 70.0518C95.6662 69.7843 95.6007 69.5149 95.5243 69.251C95.5061 69.1855 95.4842 69.1182 95.4642 69.0527L95.4314 68.9544V68.9435V68.9234L95.4187 68.8852L95.3805 68.7742L95.3441 68.6723C95.3186 68.6049 95.2931 68.5376 95.2677 68.4703C95.2143 68.3368 95.1579 68.2045 95.0984 68.0735C95.0389 67.9425 94.974 67.8145 94.9037 67.6895C94.7698 67.4384 94.6215 67.1954 94.4596 66.9615C94.2994 66.7322 94.1301 66.5138 93.9536 66.3063C93.7771 66.0988 93.5896 65.9059 93.4076 65.7221C93.0407 65.3704 92.649 65.0456 92.2355 64.7502C91.4743 64.2178 90.6756 63.741 89.8459 63.3233C89.4528 63.1195 89.0651 62.9247 88.6847 62.73L88.4008 62.5844L88.2588 62.5116L88.1879 62.4752L88.1533 62.457L88.1351 62.4479L88.1023 62.4224H88.0932C87.8726 62.3142 87.6459 62.2188 87.4144 62.1367C86.9794 61.9783 86.5699 61.86 86.1786 61.7144C85.7775 61.587 85.4062 61.3803 85.0866 61.1065L84.9046 61.1957C84.9196 61.3198 84.9483 61.4419 84.9901 61.5597C85.0101 61.6198 85.0338 61.678 85.0593 61.7417C85.0848 61.8054 85.1139 61.8564 85.143 61.911C85.2622 62.1309 85.4024 62.3387 85.5616 62.5316C85.8636 62.8887 86.1838 63.2301 86.5207 63.5544C86.6736 63.7091 86.8156 63.8584 86.9339 64.0003L86.9066 63.9803L86.9211 63.9967L86.9503 64.0295L87.0085 64.095L87.1268 64.2224L87.3652 64.4735C87.6855 64.803 88.0113 65.1178 88.3316 65.4236C88.9723 66.0333 89.5929 66.6066 90.1225 67.1799C90.6138 67.6889 91.0333 68.2626 91.3692 68.8852C91.4402 69.0272 91.5057 69.1673 91.5621 69.3093C91.6186 69.4512 91.6659 69.595 91.7096 69.7406L91.7387 69.8498L91.7532 69.9044L91.7642 69.9517L91.786 70.0391L91.7987 70.0992L91.826 70.2193C91.8606 70.3794 91.8879 70.5396 91.9079 70.7016C91.928 70.8636 91.9462 71.0292 91.9553 71.1912V71.2876V71.4096C91.9553 71.4751 91.9553 71.5406 91.9553 71.6043C91.5692 71.2409 91.1541 70.9098 90.714 70.6142C89.3621 69.7095 87.8293 69.1102 86.2223 68.8579C84.6724 68.6157 83.0891 68.6969 81.5722 69.0963C81.2024 69.1927 80.838 69.3082 80.4802 69.4421C80.2982 69.5095 80.1289 69.5805 79.956 69.6551C79.8705 69.6933 79.7849 69.7315 79.6994 69.7716L79.6357 69.8025L79.6047 69.8171H79.5884H79.6011L79.5702 69.8316L79.5538 69.8425L79.5137 69.8662C79.249 69.9993 78.9622 70.0832 78.6674 70.1137C78.3362 70.161 77.9704 70.1756 77.5991 70.2175L77.5481 70.4158C77.8475 70.6431 78.166 70.8441 78.5 71.0164C78.6824 71.1074 78.8724 71.1823 79.0678 71.2403C79.2818 71.3029 79.5022 71.3408 79.7249 71.3531H79.814H79.8978H79.9214H79.9815H80.0452L80.2982 71.3659C80.4674 71.3768 80.633 71.3859 80.8005 71.4005C81.1317 71.4259 81.4593 71.4569 81.7815 71.4951C83.0156 71.6318 84.2312 71.9021 85.4069 72.3014C86.5033 72.675 87.5441 73.1954 88.5009 73.8484C88.1988 73.7586 87.8954 73.6779 87.5909 73.6063C87.0868 73.4919 86.5771 73.4038 86.0639 73.3424C85.8073 73.3096 85.5489 73.2842 85.2904 73.2623L84.9028 73.235L84.5133 73.2186C83.473 73.1784 82.4313 73.2393 81.4029 73.4006C80.3702 73.5729 79.3599 73.8598 78.3908 74.256C77.427 74.6382 76.5167 75.1435 75.6826 75.7594C74.8568 76.3603 74.1377 77.0954 73.5551 77.9343L73.677 78.0981L74.385 77.8906C74.6198 77.8251 74.8491 77.7595 75.0784 77.7086C75.5358 77.5872 75.9878 77.4811 76.4343 77.3901C77.3072 77.2042 78.1902 77.0693 79.0788 76.986C80.7991 76.8446 82.5292 76.8732 84.2439 77.0716L84.5642 77.1098L84.8846 77.1498L85.5234 77.2427C85.9493 77.31 86.3733 77.3864 86.7974 77.4611C87.2214 77.5357 87.6491 77.6176 88.0714 77.6977L89.3636 77.9488L90.3828 78.1508C89.822 78.1965 89.265 78.2804 88.7157 78.402C88.1823 78.5192 87.6576 78.6724 87.145 78.8606C86.625 79.049 86.1189 79.274 85.6308 79.534C85.1366 79.7975 84.6616 80.0955 84.2093 80.4258C83.9818 80.5896 83.7598 80.7625 83.5432 80.9409C83.4352 81.0307 83.3279 81.1217 83.2211 81.2139L83.1192 81.3049L83.05 81.3704L82.8898 81.5233C82.0871 82.3066 81.3924 83.1935 80.8241 84.1605C80.2842 85.0831 79.8409 86.0589 79.501 87.0725C79.175 88.041 78.9141 89.0303 78.7202 90.0336C78.6219 90.5287 78.5382 91.0237 78.46 91.5224C78.4217 91.7717 78.3853 92.0229 78.3544 92.2759C78.3235 92.5288 78.2907 92.7818 78.267 93.0421L78.449 93.1276C78.631 92.9456 78.813 92.7472 78.9714 92.5525C79.1297 92.3578 79.3008 92.1576 79.4573 91.9574C79.7722 91.5551 80.0707 91.1475 80.3673 90.7398C80.9461 89.9244 81.4884 89.1109 82.0308 88.3392C82.5732 87.5675 83.1228 86.8341 83.687 86.1698C84.235 85.5216 84.8365 84.9207 85.4852 84.3734L85.5998 84.2788L85.669 84.2224H85.6781L85.6617 84.2369L85.6781 84.226L85.709 84.2023C85.7915 84.1368 85.8752 84.0731 85.9602 84.0112C86.1294 83.8857 86.3005 83.7655 86.4734 83.6472C86.821 83.4106 87.1796 83.1886 87.5436 82.972C87.9076 82.7554 88.2825 82.548 88.6647 82.3405C89.0469 82.133 89.44 81.9346 89.8422 81.7399C90.6467 81.3468 91.4802 80.9591 92.3611 80.5532C92.7561 80.3712 93.1601 80.1892 93.5678 79.9836C93.4695 80.1001 93.3767 80.2202 93.2893 80.3476C93.2329 80.4277 93.1765 80.5096 93.1255 80.5933C93.0746 80.677 93.0236 80.7589 92.9763 80.8426L92.9053 80.9682L92.918 80.9154V80.9263V80.9391L92.9017 80.9664L92.8689 81.0192C92.8234 81.0992 92.7779 81.1739 92.736 81.2503C92.5679 81.5539 92.4172 81.8668 92.2847 82.1876C92.027 82.8109 91.8278 83.4567 91.6895 84.1168C91.6186 84.4408 91.5676 84.7647 91.5203 85.0869C91.473 85.409 91.4329 85.7293 91.4002 86.0496C91.2747 87.3039 91.214 88.5638 91.2182 89.8243C91.2182 90.4504 91.2182 91.0801 91.24 91.728C91.24 92.052 91.2564 92.3796 91.2673 92.7163C91.2673 92.8837 91.2782 93.053 91.2873 93.2277C91.2964 93.4024 91.3037 93.5753 91.3183 93.7573L91.5003 93.8411C91.6434 93.7274 91.7801 93.6059 91.9098 93.4771C92.0408 93.3533 92.1627 93.2241 92.2738 93.093C92.5091 92.8298 92.7285 92.5526 92.9308 92.2631C93.327 91.6921 93.6711 91.0866 93.9591 90.454C94.5006 89.2384 94.9118 87.9689 95.1858 86.6666C95.2549 86.3524 95.3186 86.0405 95.3769 85.7311C95.4351 85.4199 95.4915 85.1123 95.5334 84.8048C95.6205 84.1936 95.6734 83.5781 95.6917 82.9611C95.7026 82.6535 95.7026 82.3441 95.6917 82.0311C95.6917 81.9528 95.6917 81.8727 95.6917 81.7981V81.6926L95.7044 81.6398V81.6307L95.6917 81.5233L95.6444 81.0938C95.6171 80.8408 95.5916 80.5842 95.5734 80.3185C95.8258 80.6169 96.0685 80.9239 96.3014 81.2394C96.9571 82.124 97.5524 83.0519 98.0832 84.0167C99.1451 85.9984 100.062 88.0543 100.828 90.1683L101.128 90.9727L101.166 91.0747L101.184 91.1256L101.174 91.0983V91.1111V91.1365L101.241 91.3349L101.37 91.7317L101.496 92.1303L101.616 92.5252L101.734 92.9311L101.847 93.3333C102.143 94.4071 102.397 95.4924 102.608 96.5893C103.028 98.7867 103.304 101.01 103.432 103.243C103.562 105.486 103.573 107.734 103.465 109.977C103.359 112.223 103.146 114.465 102.842 116.697C102.64 118.165 102.397 119.627 102.114 121.081C107.3 123.225 111.855 124.29 115.357 124.29C116.875 124.29 118.189 124.086 119.279 123.689C120.518 122.51 121.671 121.243 122.728 119.898C122.75 119.809 122.777 119.716 122.795 119.63C122.886 119.17 123.125 118.753 123.476 118.442C123.842 118.118 124.189 117.773 124.517 117.41C128.266 111.699 130.372 104.923 130.104 98.007C130.084 97.4847 130.048 96.966 130.004 96.4491C129.991 96.2962 129.975 96.1434 129.96 95.9923C129.923 95.6065 129.879 95.2212 129.829 94.8366C129.811 94.691 129.793 94.5454 129.773 94.4016C129.702 93.8993 129.624 93.397 129.533 92.8983C129.516 92.8109 129.498 92.7163 129.482 92.638C129.403 92.2206 129.318 91.8045 129.227 91.3895C129.189 91.2184 129.151 91.0474 129.111 90.8763C129.029 90.5268 128.944 90.178 128.854 89.8298C128.812 89.6714 128.774 89.5113 128.73 89.3529C128.609 88.8858 128.476 88.4205 128.332 87.957C128.281 87.7877 128.226 87.6203 128.173 87.451C128.075 87.1362 127.973 86.8213 127.869 86.5083C127.799 86.2984 127.727 86.0885 127.655 85.8786C127.557 85.5983 127.457 85.318 127.354 85.0377C127.28 84.8339 127.207 84.6282 127.13 84.4244C126.973 84.0058 126.811 83.5884 126.644 83.1722C126.544 82.9211 126.441 82.6717 126.337 82.4206C126.251 82.2131 126.165 82.0056 126.078 81.7981C125.964 81.5288 125.849 81.26 125.733 80.9919C125.66 80.8262 125.587 80.6624 125.514 80.4968C125.224 79.844 124.928 79.1937 124.624 78.5458C123.592 76.3509 122.489 74.1905 121.376 72.0629C117.99 65.5928 114.534 59.161 111.08 52.7291C109.624 50.0246 108.173 47.3194 106.726 44.6137L98.3344 28.9198C96.0612 24.6683 93.8845 20.2603 90.4046 16.8387C89.2175 15.6983 87.8682 14.7397 86.4006 13.994C86.3247 13.7796 86.2272 13.5735 86.1094 13.3789C85.3814 12.4507 84.5096 11.6044 83.707 10.7417C82.0369 8.9067 80.1623 7.26895 78.1196 5.86044C74.0483 3.11224 69.2617 2.30416 64.6243 4.07502C61.1663 5.39452 55.9065 9.20742 56.4343 13.4935C56.9403 17.6977 64.3258 18.7897 65.6726 14.6492Z" fill="#0EACA1"/>
<path d="M98.7548 116.873C98.3507 116.145 97.9188 115.427 97.459 114.72L97.277 114.458L97.0949 114.2L96.913 113.939L96.731 113.683L96.549 113.428L96.4561 113.3L96.4179 113.248L96.3943 113.219L96.3469 113.159L95.9665 112.678C94.9479 111.365 93.8354 110.128 92.6378 108.976C92.0208 108.395 91.3654 107.855 90.6758 107.362C90.3531 107.133 90.0212 106.916 89.6803 106.712C89.8683 106.632 90.0534 106.561 90.2354 106.499C90.7225 106.328 91.2255 106.206 91.7369 106.135L91.9189 106.113L92.1009 106.097L92.2829 106.086H92.3721H92.4303H92.4667C92.6968 106.08 92.927 106.086 93.1565 106.104C93.3921 106.124 93.6266 106.155 93.859 106.199L94.041 106.237H94.0647H94.0756H94.1138H94.1284L94.1848 106.248L94.2612 106.264L94.4323 106.304L94.6143 106.35C95.1342 106.511 95.643 106.705 96.1376 106.932C96.7226 107.2 97.321 107.438 97.9303 107.644C98.0923 107.695 98.2598 107.744 98.429 107.786C98.5127 107.808 98.5983 107.828 98.6856 107.844L98.7512 107.857H98.7675H98.7821H98.8112L98.9004 107.877L98.9823 107.891C99.1978 107.925 99.4168 107.931 99.6339 107.91C99.7367 107.9 99.8388 107.883 99.9396 107.86C100.036 107.839 100.131 107.813 100.224 107.78C100.556 107.661 100.871 107.496 101.159 107.291C101.296 107.196 101.427 107.109 101.554 107L101.736 106.85L101.927 106.699L101.885 106.563C101.719 106.554 101.553 106.554 101.387 106.563C101.223 106.563 101.061 106.576 100.904 106.581C100.617 106.6 100.329 106.592 100.043 106.557C99.9277 106.54 99.8142 106.511 99.7048 106.47C99.612 106.434 99.524 106.387 99.4428 106.33L99.4136 106.31L99.3882 106.295H99.3754H99.3645L99.3208 106.266L99.1388 106.152C99.0223 106.073 98.9077 105.993 98.7912 105.909C98.3271 105.576 97.8557 105.209 97.3206 104.845C97.1872 104.753 97.0495 104.662 96.9075 104.574C96.7655 104.484 96.6181 104.392 96.4652 104.313C96.3124 104.235 96.154 104.148 95.992 104.069C95.9101 104.031 95.8264 103.993 95.7427 103.957L95.4843 103.853C95.3969 103.82 95.3022 103.787 95.2167 103.758C95.1312 103.729 95.0347 103.7 94.9401 103.674L94.7908 103.634L94.7344 103.62H94.7599H94.7435L94.7108 103.611C94.6216 103.587 94.5288 103.565 94.4378 103.543C94.0644 103.457 93.6834 103.407 93.3003 103.396C92.9103 103.385 92.5202 103.416 92.1373 103.491L92.059 103.505L92.0026 103.518L91.8625 103.551C91.769 103.574 91.6762 103.599 91.584 103.627C91.4912 103.654 91.402 103.685 91.311 103.718C91.22 103.751 91.129 103.786 91.0453 103.824C90.3531 104.117 89.7369 104.564 89.2435 105.13C89.1962 105.185 89.1507 105.24 89.107 105.296L89.1379 105.203C89.1864 105.058 89.2368 104.915 89.289 104.774L89.3272 104.668L89.3363 104.643V104.632V104.617L89.3563 104.559L89.4346 104.355C89.5426 104.081 89.6554 103.815 89.7731 103.558L89.7112 103.695L89.7949 103.474C89.9374 103.096 90.1128 102.73 90.3191 102.382C90.5165 102.051 90.7457 101.739 91.0034 101.452L91.0289 101.425L91.0398 101.412L91.0944 101.356L91.2036 101.248C91.2764 101.176 91.3516 101.105 91.4293 101.035C91.5075 100.966 91.5858 100.897 91.6677 100.832C91.7496 100.766 91.8333 100.701 91.9189 100.635C92.2758 100.369 92.649 100.126 93.0364 99.9071C93.8372 99.4485 94.7435 99.0335 95.6717 98.573C96.1358 98.3419 96.6054 98.0998 97.0677 97.8287C97.5374 97.5604 97.9821 97.2503 98.3963 96.9023L98.3435 96.7712C97.7975 96.7913 97.2824 96.8222 96.7637 96.8568C96.245 96.8914 95.7281 96.9332 95.2058 96.9915C94.6834 97.0497 94.1593 97.1298 93.6297 97.2408C93.0862 97.3515 92.5515 97.5018 92.0299 97.6903C91.4812 97.8821 90.9532 98.1284 90.4538 98.4256C90.3264 98.5039 90.2008 98.5876 90.0752 98.6731C89.9496 98.7587 89.8277 98.8551 89.7112 98.9461C89.5947 99.0371 89.4746 99.1409 89.36 99.2428C89.3017 99.2938 89.2471 99.3465 89.1907 99.4011L89.1088 99.4812L89.0924 99.4976L89.0578 99.5322L89.016 99.5759C88.343 100.272 87.8604 101.129 87.6146 102.066V102.036L87.6055 102.009L87.5582 101.876C87.4926 101.694 87.4217 101.521 87.3398 101.349C87.2579 101.176 87.1687 101.008 87.0722 100.843L86.9976 100.721L86.9594 100.661V100.648L86.9448 100.624L86.9011 100.557L86.8593 100.495L86.7737 100.373C86.7155 100.292 86.6548 100.212 86.5917 100.135C86.5286 100.057 86.4637 99.9817 86.397 99.9089C86.2643 99.7638 86.1233 99.6265 85.9748 99.4976C85.8273 99.3702 85.6763 99.2519 85.5234 99.1336C85.3705 99.0153 85.2122 98.9261 85.0538 98.8351C84.7473 98.6608 84.4286 98.5087 84.1002 98.3801C83.4973 98.1509 82.8787 97.9654 82.2492 97.825C81.9507 97.754 81.6559 97.6885 81.3665 97.623L81.1499 97.5739L81.0426 97.5484L80.9879 97.5356H80.9607H80.9479L80.9206 97.5247H80.9115C80.7445 97.4895 80.5755 97.464 80.4056 97.4483C80.0871 97.4155 79.7904 97.4046 79.4956 97.3737C79.2054 97.3547 78.9221 97.2779 78.662 97.148L78.5528 97.239C78.5837 97.3195 78.6234 97.3964 78.6711 97.4683C78.6948 97.5047 78.7202 97.5411 78.7475 97.5757C78.7748 97.6103 78.804 97.643 78.8331 97.6758C78.9502 97.8038 79.0794 97.9202 79.2189 98.0234C79.4827 98.2126 79.7561 98.3882 80.0379 98.5494C80.1671 98.6276 80.2873 98.7041 80.391 98.7787H80.3692H80.3819L80.4074 98.7951L80.4583 98.8278L80.5603 98.8934L80.7641 99.0226C81.0353 99.19 81.3101 99.3465 81.5758 99.4976C82.1109 99.7997 82.626 100.08 83.0791 100.377C83.4961 100.636 83.8757 100.95 84.2075 101.312C84.2785 101.396 84.3477 101.48 84.4096 101.565C84.4714 101.651 84.5279 101.747 84.5806 101.831L84.6189 101.9L84.6371 101.935L84.6516 101.964L84.6807 102.018L84.7008 102.057L84.739 102.133C84.7887 102.235 84.8348 102.339 84.8773 102.444C84.9191 102.55 84.9592 102.659 84.992 102.766L85.012 102.83V102.846L85.0284 102.908C85.0411 102.952 85.0538 102.996 85.0648 103.039C84.7435 102.861 84.4081 102.708 84.0619 102.584C82.9984 102.205 81.865 102.061 80.7404 102.164C79.6545 102.263 78.6011 102.587 77.6464 103.114C77.4156 103.241 77.1914 103.38 76.9749 103.531C76.8675 103.605 76.7619 103.684 76.6582 103.764L76.5053 103.886L76.4671 103.917L76.4489 103.933H76.4398H76.4507L76.4325 103.947V103.957L76.4088 103.978C76.3183 104.058 76.218 104.125 76.1104 104.179C76.3821 104.421 76.6576 104.664 76.9366 104.907H76.9548H76.9767H77.0204L77.2024 104.872L77.5463 104.81C77.7738 104.77 77.9995 104.737 78.2234 104.708C79.0772 104.591 79.9413 104.566 80.8005 104.635C81.6016 104.701 82.3901 104.875 83.1447 105.152C82.9263 105.143 82.7072 105.143 82.4876 105.152C82.1292 105.16 81.7713 105.187 81.4157 105.232C81.2337 105.254 81.0517 105.28 80.8824 105.311L80.6167 105.358L80.3528 105.413C79.6458 105.564 78.9552 105.783 78.2907 106.068H78.2743C78.5704 106.318 78.8695 106.567 79.1716 106.816C79.6824 107.237 80.1926 107.649 80.7022 108.053L80.8242 108.033L81.0462 108.004L81.2682 107.977L81.7141 107.931C82.0108 107.904 82.3093 107.884 82.6096 107.862C82.9099 107.84 83.2084 107.822 83.5196 107.804L84.4296 107.755L85.1576 107.719C84.788 107.844 84.4274 107.995 84.0783 108.17C83.7393 108.339 83.4122 108.531 83.0992 108.745C82.838 108.924 82.5876 109.118 82.3493 109.326C83.0773 109.89 83.8181 110.441 84.5497 110.964C84.6025 110.914 84.6534 110.863 84.708 110.814C84.9319 110.612 85.1612 110.41 85.3978 110.21C85.8728 109.808 86.3715 109.406 86.892 108.985C87.1274 108.795 87.3658 108.599 87.6073 108.397C87.56 108.492 87.5181 108.588 87.4817 108.687C87.4562 108.75 87.4326 108.816 87.4126 108.88C87.3925 108.943 87.3707 109.009 87.3543 109.073L87.3288 109.169C87.3288 109.169 87.3288 109.134 87.3288 109.133V109.144V109.164L87.3161 109.205C87.2997 109.267 87.2815 109.326 87.2669 109.387C87.205 109.621 87.1563 109.857 87.1214 110.095C87.0538 110.559 87.0294 111.027 87.0486 111.495C87.0486 111.724 87.0759 111.952 87.0995 112.178C87.1232 112.403 87.1468 112.589 87.176 112.793C88.0508 113.39 88.9201 113.964 89.784 114.514C89.8452 113.884 89.8659 113.251 89.8459 112.618C89.8398 112.395 89.8295 112.174 89.8149 111.955C89.8022 111.737 89.7877 111.521 89.764 111.306C89.7194 110.878 89.6507 110.452 89.5583 110.032C89.5128 109.822 89.4619 109.613 89.4036 109.404C89.3891 109.351 89.3745 109.298 89.3581 109.249L89.3472 109.207V109.185V109.175C89.3472 109.165 89.3472 109.14 89.3472 109.136L89.3217 109.065L89.218 108.783C89.1561 108.618 89.0961 108.45 89.036 108.274C89.2568 108.433 89.4728 108.598 89.6839 108.769C90.2754 109.253 90.8336 109.776 91.3547 110.336C92.4079 111.489 93.3762 112.717 94.2521 114.01L94.5906 114.5L94.6325 114.562L94.6543 114.593L94.6416 114.576L94.6507 114.591L94.729 114.713L94.8837 114.958L95.0365 115.204L95.184 115.45L95.3332 115.703L95.477 115.954C95.858 116.626 96.2129 117.314 96.5417 118.016C96.6218 118.185 96.6946 118.358 96.771 118.528C98.0401 119.183 99.2826 119.782 100.498 120.326C99.9775 119.145 99.3955 117.993 98.7548 116.873Z" fill="#0EACA1"/>
<path d="M88.2502 125.636C86.9651 126.353 85.7469 127.184 84.6102 128.119C83.1797 129.269 81.6454 130.818 79.6762 130.154C77.4212 129.391 75.6722 127.06 74.4291 125.176C70.74 119.581 67.8771 113.057 65.5657 106.794C65.1326 105.618 64.7291 104.436 64.3554 103.247C61.695 99.8724 59.2105 96.363 56.9116 92.7327C57.0087 93.6366 57.113 94.5387 57.2247 95.439C58.424 104.99 60.2768 114.766 63.6056 123.831C66.3902 131.411 72.1086 139.046 80.9757 139.119C85.1999 139.154 88.6306 136.919 92.2069 134.986C94.713 133.632 97.3356 133.18 100 132.762C95.9342 130.642 92.0094 128.262 88.2502 125.636Z" fill="#0EACA1"/>
</svg>
